<?xml version="1.0" encoding="UTF-8" standalone="no" ?>
<!DOCTYPE svg PUBLIC "-//W3C//DTD SVG 1.1//EN" "http://www.w3.org/Graphics/SVG/1.1/DTD/svg11.dtd">
<svg xmlns="http://www.w3.org/2000/svg" xmlns:xlink="http://www.w3.org/1999/xlink" version="1.1" width="640" height="480" viewBox="0 0 640 480" xml:space="preserve">
<desc>Created with Fabric.js 3.6.6</desc>
<defs>
</defs>
<g transform="matrix(10.96 0 0 10.96 318.63 239.63)"  >
<path style="stroke: none; stroke-width: 1; stroke-dasharray: none; stroke-linecap: butt; stroke-dashoffset: 0; stroke-linejoin: miter; stroke-miterlimit: 4; fill: rgb(114,114,114); fill-rule: nonzero; opacity: 1;"  transform=" translate(-24, -24)" d="M 11.1 35.25 q 3.15 -2.2 6.25 -3.375 Q 20.45 30.7 24 30.7 q 3.55 0 6.675 1.175 t 6.275 3.375 q 2.2 -2.7 3.125 -5.45 Q 41 27.05 41 24 q 0 -7.25 -4.875 -12.125 T 24 7 q -7.25 0 -12.125 4.875 T 7 24 q 0 3.05 0.95 5.8 t 3.15 5.45 Z M 24 25.5 q -2.9 0 -4.875 -1.975 T 17.15 18.65 q 0 -2.9 1.975 -4.875 T 24 11.8 q 2.9 0 4.875 1.975 t 1.975 4.875 q 0 2.9 -1.975 4.875 T 24 25.5 Z M 24 44 q -4.1 0 -7.75 -1.575 q -3.65 -1.575 -6.375 -4.3 q -2.725 -2.725 -4.3 -6.375 Q 4 28.1 4 24 q 0 -4.15 1.575 -7.775 t 4.3 -6.35 q 2.725 -2.725 6.375 -4.3 Q 19.9 4 24 4 q 4.15 0 7.775 1.575 t 6.35 4.3 q 2.725 2.725 4.3 6.35 Q 44 19.85 44 24 q 0 4.1 -1.575 7.75 q -1.575 3.65 -4.3 6.375 q -2.725 2.725 -6.35 4.3 Q 28.15 44 24 44 Z m 0 -3 q 2.75 0 5.375 -0.8 t 5.175 -2.8 q -2.55 -1.8 -5.2 -2.75 q -2.65 -0.95 -5.35 -0.95 q -2.7 0 -5.35 0.95 q -2.65 0.95 -5.2 2.75 q 2.55 2 5.175 2.8 Q 21.25 41 24 41 Z m 0 -18.5 q 1.7 0 2.775 -1.075 t 1.075 -2.775 q 0 -1.7 -1.075 -2.775 T 24 14.8 q -1.7 0 -2.775 1.075 T 20.15 18.65 q 0 1.7 1.075 2.775 T 24 22.5 Z m 0 -3.85 Z m 0 18.7 Z" stroke-linecap="round" />
</g>
</svg>