<?xml version="1.0" encoding="UTF-8" standalone="no" ?>
<!DOCTYPE svg PUBLIC "-//W3C//DTD SVG 1.1//EN" "http://www.w3.org/Graphics/SVG/1.1/DTD/svg11.dtd">
<svg xmlns="http://www.w3.org/2000/svg" xmlns:xlink="http://www.w3.org/1999/xlink" version="1.1" width="640" height="480" viewBox="0 0 640 480" xml:space="preserve">
<desc>Created with Fabric.js 3.6.6</desc>
<defs>
</defs>
<g transform="matrix(10.55 0 0 10.55 310.13 242.12)"  >
<path style="stroke: none; stroke-width: 1; stroke-dasharray: none; stroke-linecap: butt; stroke-dashoffset: 0; stroke-linejoin: miter; stroke-miterlimit: 4; fill: rgb(114,114,114); fill-rule: nonzero; opacity: 1;"  transform=" translate(-24, -23.95)" d="M 39.8 41.95 L 26.65 28.8 q -1.5 1.3 -3.5 2.025 q -2 0.725 -4.25 0.725 q -5.4 0 -9.15 -3.75 T 6 18.75 q 0 -5.3 3.75 -9.05 q 3.75 -3.75 9.1 -3.75 q 5.3 0 9.025 3.75 q 3.725 3.75 3.725 9.05 q 0 2.15 -0.7 4.15 q -0.7 2 -2.1 3.75 L 42 39.75 Z m -20.95 -13.4 q 4.05 0 6.9 -2.875 Q 28.6 22.8 28.6 18.75 t -2.85 -6.925 Q 22.9 8.95 18.85 8.95 q -4.1 0 -6.975 2.875 T 9 18.75 q 0 4.05 2.875 6.925 t 6.975 2.875 Z" stroke-linecap="round" />
</g>
</svg>