<?xml version="1.0" encoding="UTF-8" standalone="no" ?>
<!DOCTYPE svg PUBLIC "-//W3C//DTD SVG 1.1//EN" "http://www.w3.org/Graphics/SVG/1.1/DTD/svg11.dtd">
<svg xmlns="http://www.w3.org/2000/svg" xmlns:xlink="http://www.w3.org/1999/xlink" version="1.1" width="640" height="480" viewBox="0 0 640 480" xml:space="preserve">
<desc>Created with Fabric.js 3.6.6</desc>
<defs>
</defs>
<g transform="matrix(11.02 0 0 11.02 319.88 241.88)"  >
<path style="stroke: none; stroke-width: 1; stroke-dasharray: none; stroke-linecap: butt; stroke-dashoffset: 0; stroke-linejoin: miter; stroke-miterlimit: 4; fill: rgb(114,114,114); fill-rule: nonzero; opacity: 1;"  transform=" translate(-24, -24)" d="M 12 44 v -8.5 q -1.8 -0.8 -3.275 -2.15 Q 7.25 32 6.2 30.225 Q 5.15 28.45 4.575 26.35 T 4 22 q 0 -7.9 5.6 -12.95 Q 15.2 4 24 4 t 14.4 5.05 Q 44 14.1 44 22 q 0 2.25 -0.575 4.35 q -0.575 2.1 -1.625 3.875 t -2.525 3.125 Q 37.8 34.7 36 35.5 V 44 Z m 3 -3 h 3.5 v -5 h 3 v 5 h 5 v -5 h 3 v 5 H 33 v -7.35 q 1.85 -0.55 3.325 -1.65 q 1.475 -1.1 2.525 -2.625 q 1.05 -1.525 1.6 -3.4 T 41 22 q 0 -6.7 -4.7 -10.85 Q 31.6 7 24 7 q -7.6 0 -12.3 4.15 Q 7 15.3 7 22 q 0 2.1 0.55 3.975 t 1.6 3.4 Q 10.2 30.9 11.675 32 Q 13.15 33.1 15 33.65 Z m 6 -11 h 6 l -3 -6 Z m -4 -5 q 1.45 0 2.475 -1.025 Q 20.5 22.95 20.5 21.5 q 0 -1.45 -1.025 -2.475 Q 18.45 18 17 18 q -1.45 0 -2.475 1.025 Q 13.5 20.05 13.5 21.5 q 0 1.45 1.025 2.475 Q 15.55 25 17 25 Z m 14 0 q 1.45 0 2.475 -1.025 Q 34.5 22.95 34.5 21.5 q 0 -1.45 -1.025 -2.475 Q 32.45 18 31 18 q -1.45 0 -2.475 1.025 Q 27.5 20.05 27.5 21.5 q 0 1.45 1.025 2.475 Q 29.55 25 31 25 Z m -7 16 Z" stroke-linecap="round" />
</g>
</svg>